# xmcd
#
# Track frame offsets:
#	150
#	14857
#	36822
#	50777
#	68232
#	87755
#	103205
#	114645
#	128235
#	143380
#	162390
#	179402
#	192210
#	211432
#	224717
#	240722
#	253575
#	270050
#	285122
#	300890
#
# Disc length: 4266
#
# Revision: 3
# Processed by: cddbd v1.5.1PL0 Copyright (c) Steve Scherf et al.
# Submitted via: CDValet v3.31 - Copyright (c) 1997 Greg Leichner
# Normalized: r1:DSETVAR1,TDELIM( - ),TSWAP
#
DISCID=2210a814
DTITLE=Various Artist - Nasville Collection Vol 2
DYEAR=1900
DGENRE=
TTITLE0=Shelby Lynne - Slow Me Down
TTITLE1=Wynona - To Be Loved By You
TTITLE2=Vince Gill - What The Cowgirls Do
TTITLE3=The Mavericks - What A Crying Shame
TTITLE4=Reba McEntyre(Duet with Linda Davies) - Does He Love You
TTITLE5=Tim McGraw - I Like It, I Love It
TTITLE6=Kevin Welch - I Feel Fine Today
TTITLE7=Trisha Yearwood - I Wanna Go Too Far
TTITLE8=George Strait - Check Yes Or No
TTITLE9=Jo Dee Messina - Let It Go
TTITLE10=Mary Chapin Carpenter - House of Cards
TTITLE11=Hal Ketchum - Veil of Tears
TTITLE12=Nanci Griffiths - Going Back To Georgia
TTITLE13=Kieran Kane - This Dirty Little Town
TTITLE14=Emmylou Harris - Crescent City
TTITLE15=Patty Loveless - She Drew A Broken Heart
TTITLE16=Bobbie Cryner - I Just Can't Stand To Be Unhappy
TTITLE17=The Derailers - This Big City
TTITLE18=Sawyer Brown - Wantin' and Havin' It All
TTITLE19=Marcus Hummon - God's Country, USA
EXTD=
EXTT0=
EXTT1=
EXTT2=
EXTT3=
EXTT4=
EXTT5=
EXTT6=
EXTT7=
EXTT8=
EXTT9=
EXTT10=
EXTT11=
EXTT12=
EXTT13=
EXTT14=
EXTT15=
EXTT16=
EXTT17=
EXTT18=
EXTT19=
PLAYORDER=
